<svg xmlns="http://www.w3.org/2000/svg" viewBox="0 0 217 44" width="217" height="44" role="img" aria-label="Six Star Signal"><title>Six Star Signal</title><g fill="#FF2F8F"><path transform="translate(4.00 31) scale(0.01575 -0.01575)" d="M496 -16Q255 -16 148.5 104.0Q42 224 42 486V658H390V438Q390 377 408.5 342.5Q427 308 473 308Q521 308 539.5 336.0Q558 364 558 428Q558 509 542.0 563.5Q526 618 486.5 667.5Q447 717 377 783L219 933Q42 1100 42 1315Q42 1540 146.5 1658.0Q251 1776 449 1776Q691 1776 792.5 1647.0Q894 1518 894 1255H536V1376Q536 1412 515.5 1432.0Q495 1452 460 1452Q418 1452 398.5 1428.5Q379 1405 379 1368Q379 1331 399.0 1288.0Q419 1245 478 1189L681 994Q742 936 793.0 871.5Q844 807 875.0 721.5Q906 636 906 513Q906 265 814.5 124.5Q723 -16 496 -16Z"/><path transform="translate(19.89 31) scale(0.01575 -0.01575)" d="M62 0V1760H402V0Z"/><path transform="translate(28.20 31) scale(0.01575 -0.01575)" d="M27 0 216 933 66 1761H410L501 1156L582 1761H927L777 933L965 0H609L498 688L384 0Z"/><path transform="translate(53.37 31) scale(0.01575 -0.01575)" d="M496 -16Q255 -16 148.5 104.0Q42 224 42 486V658H390V438Q390 377 408.5 342.5Q427 308 473 308Q521 308 539.5 336.0Q558 364 558 428Q558 509 542.0 563.5Q526 618 486.5 667.5Q447 717 377 783L219 933Q42 1100 42 1315Q42 1540 146.5 1658.0Q251 1776 449 1776Q691 1776 792.5 1647.0Q894 1518 894 1255H536V1376Q536 1412 515.5 1432.0Q495 1452 460 1452Q418 1452 398.5 1428.5Q379 1405 379 1368Q379 1331 399.0 1288.0Q419 1245 478 1189L681 994Q742 936 793.0 871.5Q844 807 875.0 721.5Q906 636 906 513Q906 265 814.5 124.5Q723 -16 496 -16Z"/><path transform="translate(69.25 31) scale(0.01575 -0.01575)" d="M229 0V1422H20V1760H790V1422H581V0Z"/><path transform="translate(83.01 31) scale(0.01575 -0.01575)" d="M30 0 200 1760H797L964 0H631L606 284H394L372 0ZM419 565H579L502 1460H486Z"/><path transform="translate(99.67 31) scale(0.01575 -0.01575)" d="M78 0V1760H618Q753 1760 822.0 1698.5Q891 1637 914.5 1526.5Q938 1416 938 1267Q938 1123 901.5 1037.0Q865 951 764 918Q847 901 880.5 835.5Q914 770 914 666V0H567V689Q567 766 535.5 784.5Q504 803 434 803V0ZM436 1108H521Q594 1108 594 1267Q594 1370 578.0 1402.0Q562 1434 518 1434H436Z"/></g><g fill="#F4EEFC"><path transform="translate(124.61 31) scale(0.01575 -0.01575)" d="M496 -16Q255 -16 148.5 104.0Q42 224 42 486V658H390V438Q390 377 408.5 342.5Q427 308 473 308Q521 308 539.5 336.0Q558 364 558 428Q558 509 542.0 563.5Q526 618 486.5 667.5Q447 717 377 783L219 933Q42 1100 42 1315Q42 1540 146.5 1658.0Q251 1776 449 1776Q691 1776 792.5 1647.0Q894 1518 894 1255H536V1376Q536 1412 515.5 1432.0Q495 1452 460 1452Q418 1452 398.5 1428.5Q379 1405 379 1368Q379 1331 399.0 1288.0Q419 1245 478 1189L681 994Q742 936 793.0 871.5Q844 807 875.0 721.5Q906 636 906 513Q906 265 814.5 124.5Q723 -16 496 -16Z"/><path transform="translate(140.50 31) scale(0.01575 -0.01575)" d="M62 0V1760H402V0Z"/><path transform="translate(148.81 31) scale(0.01575 -0.01575)" d="M441 -16Q64 -16 64 524V1283Q64 1776 496 1776Q674 1776 769.0 1704.5Q864 1633 900.0 1496.0Q936 1359 936 1162H592V1318Q592 1375 576.5 1413.5Q561 1452 512 1452Q451 1452 431.5 1411.0Q412 1370 412 1321V468Q412 397 430.5 352.5Q449 308 503 308Q559 308 577.5 352.5Q596 397 596 470V721H502V1025H932V0H791L731 148Q639 -16 441 -16Z"/><path transform="translate(165.45 31) scale(0.01575 -0.01575)" d="M78 0V1760H440L602 917V1760H942V0H598L422 880V0Z"/><path transform="translate(182.52 31) scale(0.01575 -0.01575)" d="M30 0 200 1760H797L964 0H631L606 284H394L372 0ZM419 565H579L502 1460H486Z"/><path transform="translate(199.17 31) scale(0.01575 -0.01575)" d="M78 0V1760H430V300H792V0Z"/></g></svg>
